<svg xmlns="http://www.w3.org/2000/svg" viewBox="0 0 16 16" fill="#000000" id="File-Doc-Fill--Streamline-Phosphor-Fill" height="16" width="16">
  <desc>
    File Doc Fill Streamline Icon: https://streamlinehq.com
  </desc>
  <path d="M1.44015 8h13.447175c0.17674375 -0.00000625 0.3200375 -0.1432875 0.3200375 -0.3200375V5.4397c0.00013125 -0.16980625 -0.0672125 -0.3327125 -0.18721875 -0.45285L10.53961875 0.506325c-0.1205375 -0.1204 -0.28409375 -0.18778125 -0.45445625 -0.187225H2.4002625c-0.70700625 0 -1.28015 0.57314375 -1.28015 1.28015v6.0807125c0 0.17675625 0.14328125 0.32005 0.3200375 0.3200375Zm8.6410125 -6.0807125 3.5204125 3.5204125h-3.5204125Zm-8.0009375 8.0009375H0.800075C0.4465625 9.9202125 0.16 10.2067875 0.16 10.5603v4.480525c0 0.35350625 0.28656875 0.640075 0.640075 0.640075h1.22654375c1.5737875 0 2.8979375 -1.23854375 2.93394375 -2.810725 0.0391125 -1.61788125 -1.2619875 -2.950425 -2.8803375 -2.94995Zm-0.03920625 4.480525h-0.60086875v-3.200375h0.640075c0.9083875 -0.000675 1.6351625 0.75408125 1.6001875 1.66179375 -0.03280625 0.86570625 -0.7720875 1.53858125 -1.63859375 1.53858125Zm13.6552 -0.3424375c0.212175 0.2666 0.1868875 0.6508125 -0.05840625 0.8873 -0.448425 0.465675 -1.0657375 0.730775 -1.7122 0.7352875 -1.4121625 0 -2.5603 -1.29215 -2.5603 -2.8803375s1.1489375 -2.8803375 2.5603 -2.8803375c0.6464625 0.00451875 1.263775 0.26961875 1.7122 0.7352875 0.24529375 0.2364875 0.27058125 0.6207 0.05840625 0.88730625 -0.2451625 0.29128125 -0.68885625 0.30545 -0.95210625 0.0304 -0.2098 -0.2313 -0.50549375 -0.36613125 -0.8177 -0.37284375 -0.70568125 0 -1.28015 0.7200875 -1.28015 1.6001875s0.57446875 1.6001875 1.28015 1.6001875c0.3124 -0.00686875 0.60828125 -0.14165 0.8185 -0.37284375 0.26325 -0.27504375 0.70694375 -0.260875 0.95210625 0.03040625ZM8.1609375 9.920225c-1.4121625 0 -2.5603 1.29215 -2.5603 2.8803375s1.1497375 2.8803375 2.5603 2.8803375 2.5603 -1.29215 2.5603 -2.8803375 -1.14493125 -2.8803375 -2.5603 -2.8803375Zm0 4.480525c-0.70648125 0 -1.28015 -0.72008125 -1.28015 -1.6001875s0.57446875 -1.6001875 1.28015 -1.6001875 1.28015 0.7200875 1.28015 1.6001875 -0.57126875 1.6001875 -1.28015 1.6001875Z" stroke-width="0.0625"></path>
</svg>